<svg xmlns="http://www.w3.org/2000/svg" fill="none" viewBox="0 0 520 441">
  <path fill="#111117" d="M0 0h520v440.922H0z" />
  <path
    fill="#DADADA"
    d="M146.5 227.38v-62.16c0-29.4 1.54-47.74 4.62-55.02 4.76-11.48 17.08-26.32 36.96-44.52 20.16-18.48 35.28-27.72 45.36-27.72 10.08 0 25.06 9.24 44.94 27.72 20.16 18.2 32.62 33.04 37.38 44.52 3.08 7.28 4.62 25.62 4.62 55.02v49.56c0 29.4-1.4 47.32-4.2 53.76-2.52 6.44-9.24 15.26-20.16 26.46-10.64 10.92-21.84 19.18-33.6 24.78 12.6 9.24 20.58 13.86 23.94 13.86 6.72 0 13.58-3.92 20.58-11.76l39.06 27.3c-10.64 11.2-21.7 21-33.18 29.4-11.2 8.4-20.02 12.6-26.46 12.6-10.08 0-25.2-6.72-45.36-20.16-20.16-13.16-40.04-29.68-59.64-49.56 6.72-4.76 14.84-10.36 24.36-16.8 9.52-6.72 16.24-11.48 20.16-14.28 4.2-3.08 8.82-6.72 13.86-10.92 8.4-7 14.84-14.42 19.32-22.26 2.24-4.48 3.36-18.62 3.36-42.42v-49.56c0-22.96-1.12-36.96-3.36-42-2.24-5.32-6.16-10.78-11.76-16.38-5.32-5.88-9.94-8.82-13.86-8.82s-8.68 2.94-14.28 8.82c-5.32 5.6-9.1 11.06-11.34 16.38-2.24 5.04-3.36 19.04-3.36 42v62.16c0 21 .84 35.42 2.52 43.26l-43.68 30.24c-5.6-7.28-9.8-14-12.6-20.16-2.8-6.16-4.2-23.94-4.2-53.34Zm244.804 48.72c3.08 0 10.08 4.62 21 13.86 10.92 9.24 16.38 15.54 16.38 18.9 0 3.08-5.46 9.38-16.38 18.9-10.92 9.52-17.92 14.28-21 14.28-3.08 0-10.08-4.76-21-14.28s-16.38-15.82-16.38-18.9c0-3.36 5.46-9.66 16.38-18.9 11.2-9.24 18.2-13.86 21-13.86Z"
  />
</svg>
